<?xml version="1.0" encoding="UTF-8"?>
<svg width="120" height="32" viewBox="0 0 120 32" fill="none" xmlns="http://www.w3.org/2000/svg">
  <path d="M15.2 24L7.6 8.4H7.48C7.54667 9.52 7.58667 10.7067 7.6 11.96V24H4.8V4.8H9L16.48 20.08H16.56L24.2 4.8H28.4V24H25.44V11.84C25.44 11.3067 25.4533 10.6 25.48 9.72C25.5067 8.82667 25.52 8.53333 25.52 8.4H25.4L17.64 24H15.2Z" fill="currentColor"/>
  <path d="M42.9906 24H32.5906V4.8H42.9906V7.28H35.7506V12.8H42.3506V15.28H35.7506V21.52H42.9906V24Z" fill="currentColor"/>
  <path d="M59.0813 24H55.9213L53.8813 18.64H47.2813L45.2813 24H42.1213L48.6013 4.72H52.6013L59.0813 24ZM53.0813 16.16L50.7213 9.52C50.6146 9.22667 50.5079 8.77333 50.4013 8.16H50.3213C50.2279 8.82667 50.1213 9.28 50.0013 9.52L47.6813 16.16H53.0813Z" fill="currentColor"/>
  <path d="M75.6719 24H72.1519L67.6719 16.96L63.1919 24H59.8319L66.0319 14.8L60.2319 6.24H63.7519L67.7519 12.64L71.7119 6.24H75.0719L69.3519 14.96L75.6719 24Z" fill="currentColor"/>
  <path d="M89.3625 24H78.9625V4.8H89.3625V7.28H82.1225V12.8H88.7225V15.28H82.1225V21.52H89.3625V24Z" fill="currentColor"/>
  <path d="M105.453 24H101.653L95.8933 15.2H93.4533V24H90.2933V4.8H96.8133C98.7067 4.8 100.133 5.22667 101.093 6.08C102.053 6.93333 102.533 8.13333 102.533 9.68C102.533 10.8267 102.213 11.8267 101.573 12.68C100.933 13.5333 100.013 14.1067 98.8133 14.4L105.453 24ZM93.4533 12.84H96.4933C97.6667 12.84 98.5467 12.5867 99.1333 12.08C99.72 11.5733 100.013 10.84 100.013 9.88C100.013 8.93333 99.72 8.22667 99.1333 7.76C98.5467 7.27333 97.6667 7.03333 96.4933 7.03333H93.4533V12.84Z" fill="currentColor"/>
  <path d="M120 24H108.96V21.84L116.04 7.28H109.08V4.8H119.72V6.96L112.64 21.52H120V24Z" fill="currentColor"/>
</svg>
